<svg width="42" height="25" viewBox="0 0 42 25" fill="none" xmlns="http://www.w3.org/2000/svg">
<path d="M2.08333 0C1.67129 0 1.2685 0.122186 0.925897 0.351105C0.583294 0.580025 0.316268 0.905397 0.158585 1.28608C0.000902669 1.66676 -0.0403543 2.08564 0.0400316 2.48977C0.120417 2.8939 0.318836 3.26511 0.610195 3.55647C0.901555 3.84783 1.27277 4.04625 1.6769 4.12664C2.08102 4.20702 2.49991 4.16576 2.88059 4.00808C3.26127 3.8504 3.58664 3.58337 3.81556 3.24077C4.04448 2.89817 4.16667 2.49538 4.16667 2.08333C4.16667 1.5308 3.94717 1.0009 3.55647 0.610195C3.16577 0.219494 2.63587 0 2.08333 0ZM10.4167 4.16667H39.5833C40.1359 4.16667 40.6658 3.94717 41.0565 3.55647C41.4472 3.16577 41.6667 2.63587 41.6667 2.08333C41.6667 1.5308 41.4472 1.0009 41.0565 0.610195C40.6658 0.219494 40.1359 0 39.5833 0H10.4167C9.86413 0 9.33423 0.219494 8.94353 0.610195C8.55283 1.0009 8.33333 1.5308 8.33333 2.08333C8.33333 2.63587 8.55283 3.16577 8.94353 3.55647C9.33423 3.94717 9.86413 4.16667 10.4167 4.16667ZM10.4167 10.4167C10.0046 10.4167 9.60183 10.5389 9.25923 10.7678C8.91663 10.9967 8.6496 11.3221 8.49192 11.7027C8.33424 12.0834 8.29298 12.5023 8.37336 12.9064C8.45375 13.3106 8.65217 13.6818 8.94353 13.9731C9.23489 14.2645 9.6061 14.4629 10.0102 14.5433C10.4144 14.6237 10.8332 14.5824 11.2139 14.4247C11.5946 14.2671 11.92 14 12.1489 13.6574C12.3778 13.3148 12.5 12.912 12.5 12.5C12.5 11.9475 12.2805 11.4176 11.8898 11.0269C11.4991 10.6362 10.9692 10.4167 10.4167 10.4167ZM18.75 20.8333C18.338 20.8333 17.9352 20.9555 17.5926 21.1844C17.25 21.4134 16.9829 21.7387 16.8253 22.1194C16.6676 22.5001 16.6263 22.919 16.7067 23.3231C16.7871 23.7272 16.9855 24.0984 17.2769 24.3898C17.5682 24.6812 17.9394 24.8796 18.3436 24.96C18.7477 25.0404 19.1666 24.9991 19.5473 24.8414C19.9279 24.6837 20.2533 24.4167 20.4822 24.0741C20.7111 23.7315 20.8333 23.3287 20.8333 22.9167C20.8333 22.3641 20.6138 21.8342 20.2231 21.4435C19.8324 21.0528 19.3025 20.8333 18.75 20.8333ZM39.5833 10.4167H18.75C18.1975 10.4167 17.6676 10.6362 17.2769 11.0269C16.8862 11.4176 16.6667 11.9475 16.6667 12.5C16.6667 13.0525 16.8862 13.5824 17.2769 13.9731C17.6676 14.3638 18.1975 14.5833 18.75 14.5833H39.5833C40.1359 14.5833 40.6658 14.3638 41.0565 13.9731C41.4472 13.5824 41.6667 13.0525 41.6667 12.5C41.6667 11.9475 41.4472 11.4176 41.0565 11.0269C40.6658 10.6362 40.1359 10.4167 39.5833 10.4167ZM39.5833 20.8333H27.0833C26.5308 20.8333 26.0009 21.0528 25.6102 21.4435C25.2195 21.8342 25 22.3641 25 22.9167C25 23.4692 25.2195 23.9991 25.6102 24.3898C26.0009 24.7805 26.5308 25 27.0833 25H39.5833C40.1359 25 40.6658 24.7805 41.0565 24.3898C41.4472 23.9991 41.6667 23.4692 41.6667 22.9167C41.6667 22.3641 41.4472 21.8342 41.0565 21.4435C40.6658 21.0528 40.1359 20.8333 39.5833 20.8333Z" fill="black"/>
</svg>
