<svg width="60" height="60" viewBox="0 0 60 60" fill="none" xmlns="http://www.w3.org/2000/svg">
<ellipse cx="42.5174" cy="42.5247" rx="17.4826" ry="17.4753" fill="#FFD700"/>
<ellipse cx="40.5112" cy="42.5247" rx="15.4764" ry="17.4753" fill="#F2CC02"/>
<path fill-rule="evenodd" clip-rule="evenodd" d="M40.3371 29.9635L40.3453 30.0323L40.3696 30.1016L40.4101 30.1719L40.4662 30.2437L40.5377 30.3174L40.6238 30.3936L40.7238 30.4726L40.8367 30.5547L40.9611 30.6404L41.0956 30.7297L41.2382 30.8228L41.3869 30.9198L41.539 31.0205L41.6918 31.1246L41.8421 31.2318L41.9863 31.3413L42.1208 31.4524L42.2418 31.5641L42.3453 31.6752L42.4275 31.7846L42.4849 31.8907L42.5143 31.9921L42.5132 32.0872L42.4794 32.1748L42.412 32.2534L42.3107 32.3219L42.1762 32.3794L42.01 32.4253L41.8146 32.4593L41.5932 32.4814L41.3496 32.4919L41.0879 32.4915L40.8126 32.4811L40.5283 32.4618L40.2393 32.4348L39.9499 32.4016L39.664 32.3637L39.3849 32.3224L39.1156 32.2792L38.8587 32.2354L38.6162 32.1924L38.3897 32.1513L38.1803 32.1132L37.9891 32.0791L37.8166 32.05L37.6633 32.0267L37.5296 32.0102L37.4158 32.0012L37.3221 32.0007L37.2491 32.0096L37.1971 32.0291L37.1671 32.0605L37.1602 32.1053L37.1777 32.1653L37.2219 32.243L37.2954 32.341L37.4018 32.4632L37.5458 32.614L37.7336 32.7994L37.9732 33.027L38.2752 33.3067L38.6538 33.6517L38.943 33.9436L38.4332 33.6439L38.0226 33.4056L37.6909 33.2171L37.4229 33.0701L37.207 32.9578L37.0344 32.8754L36.8983 32.8193L36.7933 32.7865L36.7153 32.7749L36.6611 32.783L36.628 32.8097L36.614 32.8542L36.6174 32.9159L36.6368 32.9947L36.6711 33.0903L36.7193 33.2026L36.7805 33.3318L36.8537 33.4777L36.938 33.6402L37.0324 33.8191L37.1358 34.0141L37.2469 34.2244L37.3642 34.4492L37.486 34.687L37.6105 34.9363L37.7355 35.1949L37.8587 35.4603L37.9776 35.7293L38.0896 35.9987L38.1921 36.2647L38.2827 36.5234L38.3589 36.7707L38.4185 37.0028L38.4598 37.2158L38.4815 37.4064L38.4828 37.5716L38.4633 37.7094L38.4234 37.8182L38.3638 37.8973L38.2859 37.947L38.1914 37.9681L38.0824 37.9623L37.961 37.9318L37.8297 37.8795L37.691 37.8083L37.5471 37.7216L37.4004 37.6228L37.2528 37.5154L37.1061 37.4024L36.962 37.2872L36.8218 37.1723L36.6864 37.0606L36.5567 36.9542L36.4334 36.8551L36.3167 36.7651L36.2069 36.6856L36.1041 36.6179L36.0081 36.563L35.919 36.5217L35.8362 36.4947L35.7597 36.4826L35.6889 36.4857L35.6235 36.5044L35.5629 36.5388L35.5067 36.5889L35.4544 36.6548L35.4053 36.7362L35.3588 36.8328L35.3144 36.9441L35.2715 37.0693L35.2293 37.2075L35.1872 37.3575L35.1445 37.5177L35.1005 37.6863L35.0545 37.8611L35.0059 38.0395L34.9541 38.2185L34.8984 38.3949L34.8386 38.5649L34.7741 38.7248L34.7048 38.8704L34.6306 38.9977L34.5517 39.1027L34.4682 39.1815L34.3806 39.2309L34.2897 39.2481L34.1962 39.231L34.101 39.1784L34.0052 39.0902L33.9098 38.9669L33.8159 38.8102L33.7246 38.6227L33.6366 38.4077L33.553 38.1691L33.4742 37.9112L33.4008 37.6388L33.333 37.3565L33.271 37.0689L33.2147 36.7804L33.1638 36.4951L33.118 36.2165L33.077 35.9477L33.04 35.6915L33.0067 35.4501L32.9762 35.2252L32.948 35.0182L32.9214 34.8301L32.8957 34.662L32.8703 34.5143L32.8443 34.3877L32.8171 34.2827L32.7878 34.2L32.7558 34.1403L32.7201 34.1046L32.6796 34.0941L32.6332 34.1105L32.5796 34.156L32.517 34.2337L32.4436 34.3473L32.3568 34.5018L32.2536 34.7038L32.13 34.9616L31.9808 35.2863L31.7995 35.6927L31.577 36.1999L31.5172 36.1745L31.6318 35.6329L31.7209 35.1972L31.7888 34.8465L31.8384 34.5649L31.8721 34.3407L31.8916 34.1645L31.8981 34.0293L31.8925 33.9295L31.8755 33.861L31.8474 33.8204L31.8085 33.8051L31.7587 33.8129L31.698 33.8424L31.6262 33.8921L31.5431 33.961L31.4484 34.0481L31.3419 34.1526L31.2232 34.2735L31.0924 34.4099L30.9492 34.5608L30.7937 34.7247L30.6263 34.9003L30.4475 35.0857L30.258 35.2788L30.059 35.477L29.852 35.6776L29.6387 35.8775L29.4214 36.0732L29.2026 36.2612L28.9849 36.4379L28.7714 36.5995L28.5651 36.7426L28.3692 36.8641L28.1864 36.9612L28.0196 37.0319L27.8709 37.0747L27.7423 37.0889L27.6349 37.0745L27.5496 37.0325L27.4862 36.9643L27.4443 36.8721L27.4227 36.7585L27.4199 36.6265L27.434 36.4793L27.4627 36.3202L27.5036 36.1525L27.554 35.9793L27.6116 35.8035L27.6737 35.6279L27.738 35.4547L27.8024 35.286L27.8648 35.1235L27.9233 34.9685L27.9763 34.8222L28.0224 34.6854L28.0603 34.5587L28.089 34.4424L28.1074 34.3367L28.1149 34.2417L28.1107 34.1574L28.0943 34.0835L28.0652 34.0198L28.023 33.9658L27.9674 33.9213L27.8983 33.8857L27.8156 33.8584L27.7193 33.8388L27.6097 33.8263L27.4871 33.82L27.352 33.819L27.2051 33.8225L27.0477 33.8294L26.8809 33.8384L26.7063 33.8483L26.5261 33.8578L26.3425 33.8653L26.1583 33.8695L25.9765 33.8686L25.8004 33.8612L25.6338 33.8457L25.4803 33.8207L25.3438 33.7849L25.2281 33.7373L25.1368 33.677L25.0728 33.6036L25.0389 33.517L25.037 33.4175L25.0682 33.3056L25.1328 33.1825L25.2302 33.0495L25.3587 32.9081L25.5162 32.7603L25.6995 32.608L25.905 32.4532L26.1287 32.2977L26.3664 32.1435L26.6136 31.9922L26.8662 31.8453L27.12 31.704L27.3713 31.5691L27.6168 31.4415L27.8535 31.3216L28.0789 31.2096L28.2909 31.1055L28.4877 31.0093L28.6679 30.9208L28.8304 30.8395L28.9742 30.765L29.0985 30.697L29.2026 30.6348L29.2857 30.5779L29.347 30.5258L29.3854 30.4779L29.3997 30.4336L29.3882 30.3923L29.3488 30.3535L29.2787 30.3165L29.1744 30.2807L29.0313 30.2452L28.8434 30.2092L28.603 30.1716L28.3 30.1312L27.9214 30.0864L27.4499 30.035L26.8622 29.9743L27.2765 29.9102L27.7823 29.8562L28.1884 29.8095L28.5138 29.7679L28.7729 29.7296L28.9766 29.6932L29.1333 29.6577L29.2494 29.622L29.33 29.5855L29.3788 29.5473L29.399 29.5069L29.3927 29.4637L29.3618 29.417L29.3077 29.3662L29.2314 29.3109L29.1339 29.2505L29.0159 29.1843L28.8782 29.112L28.7216 29.0329L28.5469 28.9467L28.3553 28.853L28.148 28.7515L27.9267 28.642L27.6933 28.5246L27.4503 28.3994L27.2005 28.2668L26.9471 28.1274L26.6937 27.9821L26.4443 27.8321L26.2031 27.6787L25.9745 27.5234L25.7627 27.3682L25.5719 27.2148L25.4059 27.0654L25.2678 26.9218L25.1603 26.7859L25.0852 26.6595L25.0433 26.5439L25.0348 26.4403L25.0587 26.3496L25.1133 26.272L25.1962 26.2076L25.3045 26.156L25.4348 26.1165L25.5833 26.0882L25.7461 26.0698L25.9196 26.06L26.1 26.0572L26.2838 26.0599L26.4679 26.0666L26.6495 26.0756L26.826 26.0855L26.9955 26.095L27.1561 26.1027L27.3064 26.1073L27.4453 26.1079L27.572 26.1034L27.6859 26.0929L27.7864 26.0757L27.8734 26.0509L27.9469 26.018L28.0067 25.9764L28.0532 25.9255L28.0864 25.8649L28.1068 25.7943L28.1149 25.7133L28.111 25.6217L28.096 25.5195L28.0705 25.4066L28.0354 25.2831L27.9918 25.1495L27.9408 25.0061L27.8839 24.8538L27.8226 24.6936L27.7587 24.5267L27.6941 24.3547L27.631 24.1796L27.5717 24.0036L27.5187 23.8293L27.4745 23.6595L27.4417 23.4973L27.4227 23.3459L27.4199 23.2087L27.4352 23.0889L27.4705 22.9896L27.527 22.9135L27.6054 22.863L27.7057 22.8397L27.8277 22.8448L27.9701 22.8785L28.1314 22.9404L28.3094 23.0293L28.5014 23.1433L28.7047 23.2798L28.9163 23.4359L29.1329 23.6081L29.3517 23.7929L29.5698 23.9866L29.7846 24.1855L29.9939 24.3863L30.1956 24.5856L30.3882 24.7806L30.5706 24.9686L30.7417 25.1476L30.901 25.3154L31.0481 25.4706L31.1829 25.6117L31.3054 25.7377L31.4158 25.8475L31.5142 25.9402L31.601 26.015L31.6763 26.071L31.7405 26.107L31.7938 26.1219L31.8362 26.1142L31.8678 26.0818L31.8883 26.0225L31.8976 25.9332L31.895 25.8098L31.8798 25.6473L31.8508 25.4393L31.8065 25.1771L31.7447 24.8499L31.6627 24.4433L31.5567 23.9381L31.4958 23.5404L31.7336 24.0848L31.9269 24.5209L32.0855 24.8699L32.2167 25.1477L32.3259 25.3664L32.4176 25.5352L32.4949 25.6613L32.5607 25.7499L32.617 25.8053L32.6655 25.8308L32.7077 25.8286L32.7449 25.8008L32.778 25.7486L32.808 25.6731L32.8358 25.5752L32.8621 25.4554L32.8876 25.3144L32.9132 25.1527L32.9394 24.9709L32.967 24.7698L32.9967 24.5505L33.0291 24.3141L33.0648 24.0624L33.1045 23.7974L33.1487 23.5216L33.1979 23.238L33.2524 22.9501L33.3126 22.6618L33.3786 22.3773L33.4502 22.1012L33.5273 21.8382L33.6095 21.593L33.6961 21.37L33.7865 21.1734L33.8797 21.0066L33.9747 20.8724L34.0705 20.7729L34.166 20.7089L34.2602 20.6806L34.352 20.687L34.4407 20.7264L34.5255 20.7962L34.606 20.8933L34.6817 21.0139L34.7526 21.1541L34.8186 21.3099L34.8799 21.4771L34.9368 21.6519L34.9898 21.8305L35.0393 22.0094L35.0861 22.1856L35.1306 22.3565L35.1737 22.5196L35.2159 22.673L35.258 22.8151L35.3006 22.9446L35.3445 23.0603L35.3902 23.1617L35.4384 23.248L35.4897 23.3188L35.5446 23.374L35.6037 23.4134L35.6675 23.4371L35.7366 23.4451L35.8112 23.4378L35.8919 23.4155L35.979 23.3787L36.0728 23.3281L36.1734 23.2643L36.2809 23.1885L36.3954 23.1017L36.5167 23.0053L36.6444 22.901L36.7781 22.7907L36.9169 22.6766L37.0599 22.5612L37.2059 22.4472L37.3533 22.3377L37.5006 22.2357L37.6456 22.1448L37.7862 22.0684L37.9201 22.0097L38.0449 21.9719L38.1582 21.958L38.2576 21.9703L38.3409 22.0107L38.4065 22.0804L38.4528 22.1798L38.4788 22.3084L38.4842 22.4652L38.4689 22.6479L38.4337 22.8542L38.3797 23.0805L38.3086 23.3235L38.2224 23.579L38.1234 23.8431L38.0141 24.1118L37.8971 24.3813L37.775 24.6482L37.6504 24.9092L37.5255 25.1617L37.4026 25.4035L37.2836 25.6326L37.1704 25.8476L37.0644 26.0476L36.967 26.2316L36.8794 26.3994L36.8025 26.5506L36.7374 26.6851L36.685 26.8028L36.6462 26.9037L36.6219 26.9879L36.6132 27.0551L36.6215 27.1051L36.6484 27.1375L36.6956 27.1517L36.7657 27.1465L36.8617 27.1207L36.9874 27.0722L37.1477 26.9985L37.3489 26.8963L37.5992 26.7609L37.9092 26.5865L38.2928 26.3651L38.7684 26.0864L38.7933 26.149L38.3867 26.5183L38.062 26.8172L37.8039 27.0602L37.6006 27.2581L37.4434 27.4192L37.3255 27.5499L37.242 27.6552L37.1888 27.739L37.163 27.8044L37.1623 27.8538L37.1851 27.8893L37.2302 27.9124L37.2966 27.9246L37.3838 27.927L37.4912 27.9206L37.6186 27.9063L37.7657 27.8851L37.9321 27.8578L38.1174 27.8252L38.3211 27.7882L38.5422 27.748L38.7798 27.7055L39.0324 27.6618L39.2979 27.6183L39.5742 27.5762L39.8583 27.5371L40.147 27.5022L40.4365 27.4731L40.7228 27.4512L41.0015 27.4378L41.268 27.4341L41.5178 27.4411L41.7467 27.4594L41.9508 27.4896L42.1266 27.5317L42.2714 27.5856L42.3834 27.6507L42.4616 27.7262L42.506 27.811L42.5174 27.9039L42.4975 28.0035L42.4486 28.1082L42.3739 28.2167L42.2768 28.3274L42.161 28.4391L42.0304 28.5505L41.8888 28.6606L41.7401 28.7686L41.5878 28.8737L41.4351 28.9755L41.285 29.0737L41.1402 29.1681L41.0029 29.2586L40.8751 29.3454L40.7584 29.4287L40.6542 29.5086L40.5636 29.5857L40.4874 29.6601L40.4263 29.7325L40.3808 29.8032L40.3513 29.8728L40.338 29.9416L40.3371 29.9635Z" fill="#FF9900"/>
<ellipse cx="18.4468" cy="18.4391" rx="18.4468" ry="18.4391" transform="matrix(0.999998 0.0017883 -0.0017898 0.999998 0.065979 0)" fill="#FFD700"/>
<ellipse cx="16.3299" cy="18.4391" rx="16.3299" ry="18.4391" transform="matrix(0.999998 0.0017883 -0.0017898 0.999998 0.065979 0)" fill="#F2CC02"/>
</svg>
