<svg width="21" height="25" viewBox="0 0 21 25" fill="none" xmlns="http://www.w3.org/2000/svg">
<path d="M10.3889 11.1111C11.4877 11.1111 12.5618 10.7853 13.4754 10.1748C14.389 9.56438 15.1011 8.69672 15.5215 7.68158C15.942 6.66643 16.052 5.54939 15.8377 4.47172C15.6233 3.39405 15.0942 2.40414 14.3172 1.62719C13.5403 0.850228 12.5504 0.321113 11.4727 0.106751C10.395 -0.107611 9.278 0.00240712 8.26286 0.422894C7.24771 0.843381 6.38005 1.55545 5.7696 2.46906C5.15915 3.38266 4.83332 4.45677 4.83332 5.55556C4.83332 7.02898 5.41864 8.44206 6.46051 9.48393C7.50238 10.5258 8.91545 11.1111 10.3889 11.1111ZM18.7222 25C19.0906 25 19.4438 24.8537 19.7043 24.5932C19.9648 24.3327 20.1111 23.9795 20.1111 23.6111C20.1111 21.0326 19.0868 18.5597 17.2635 16.7365C15.4403 14.9132 12.9674 13.8889 10.3889 13.8889C7.81038 13.8889 5.3375 14.9132 3.51423 16.7365C1.69096 18.5597 0.666657 21.0326 0.666656 23.6111C0.666656 23.9795 0.812986 24.3327 1.07345 24.5932C1.33392 24.8537 1.68719 25 2.05555 25H18.7222Z" fill="black"/>
</svg>
